<svg xmlns="http://www.w3.org/2000/svg" xmlns:xlink="http://www.w3.org/1999/xlink" viewBox="0,0,256,256" width="50px" height="50px" fill-rule="nonzero"><g fill="#64ffda" fill-rule="nonzero" stroke="none" stroke-width="1" stroke-linecap="butt" stroke-linejoin="miter" stroke-miterlimit="10" stroke-dasharray="" stroke-dashoffset="0" font-family="none" font-weight="none" font-size="none" text-anchor="none" style="mix-blend-mode: normal"><g transform="scale(2.56,2.56)"><path d="M56.58789,14.58203c-0.48136,-0.00424 -0.96863,0.00253 -1.46289,0.02149c-14.74727,0.56606 -25.09582,5.56113 -32.25586,16.38281c-5.62276,8.49897 -9.03354,19.90307 -6.78516,34.0625c1.17993,7.43074 5.54802,13.77208 11.02539,18.40234c5.47737,4.63027 12.07857,7.61383 18.17383,8.23438c5.97613,0.60861 12.82162,-0.38166 18.83203,-2.92578c6.01041,-2.54412 11.27288,-6.70456 13.50195,-12.64648c3.75938,-10.02106 3.30664,-25.65625 3.30664,-25.65625c-0.02113,-1.06025 -0.86605,-1.91974 -1.92578,-1.95898l-28.00977,-1.04492c-1.04343,-0.03839 -1.94084,0.73228 -2.06055,1.76953l-1.34375,11.62891c-0.06399,0.55312 0.10548,1.10787 0.46763,1.53081c0.36215,0.42294 0.88421,0.67578 1.44058,0.6977l15.40625,0.60742c-0.18577,0.74843 -0.41848,1.59456 -1.04102,2.57227c-1.48331,2.32957 -4.50877,4.96457 -11.86914,5.51758c-7.22163,0.54258 -11.09802,-2.20207 -13.66406,-5.77344c-2.56604,-3.57136 -3.56828,-8.119 -3.93164,-10.68555c-0.26565,-1.8764 0.71333,-6.09388 2.7168,-9.90039c2.00347,-3.80651 4.97758,-7.28226 7.76172,-8.60742c6.31157,-3.0032 17.453,-4.54149 25.35938,2.44922c0.43587,0.38542 1.01796,0.56194 1.59448,0.48355c0.57653,-0.0784 1.09034,-0.40394 1.40747,-0.89175l7.07617,-10.875c0.46936,-0.72149 0.42452,-1.66235 -0.11133,-2.33594c0,0 -8.68709,-10.92705 -23.60937,-11.05859zM57.39063,18.59766c4.37944,0.1591 8.04206,1.33659 10.97461,2.79688l-2.45508,2.41211c-0.26256,0.24882 -0.37029,0.62002 -0.28174,0.97075c0.08855,0.35072 0.35959,0.62629 0.7088,0.72065c0.34921,0.09435 0.72215,-0.00721 0.97528,-0.26561l2.89063,-2.83984c0.81643,0.48693 1.55914,0.98285 2.22656,1.47266l-3.27344,3.1543c-0.27333,0.24397 -0.39138,0.61787 -0.30769,0.97456c0.08369,0.35669 0.35572,0.63907 0.70904,0.73601c0.35332,0.09694 0.73137,-0.00708 0.98536,-0.27112l3.46094,-3.33594c0.90961,0.77709 1.64338,1.48751 2.10156,1.97852l-5.08203,7.81055c-3.0331,-2.19589 -6.32379,-3.48047 -9.62305,-4.11523l-0.3125,-4.51953c-0.02868,-0.52408 -0.45763,-0.93682 -0.98242,-0.94531c-0.28279,-0.00484 -0.5544,0.11029 -0.74758,0.31686c-0.19318,0.20658 -0.28986,0.48529 -0.26609,0.76712l0.28125,4.07227c-0.60191,-0.06816 -1.20125,-0.11601 -1.79883,-0.14453l-2.41016,-6.57422c-0.13669,-0.38898 -0.49809,-0.65421 -0.91016,-0.66797c-0.33527,-0.01171 -0.65407,0.14546 -0.84895,0.41853c-0.19488,0.27306 -0.23987,0.62564 -0.1198,0.93889l2.15039,5.86328c-2.23322,0.05812 -4.39856,0.35419 -6.41211,0.83398l0.25,-6.52734c0.01431,-0.2702 -0.08148,-0.53466 -0.2655,-0.73303c-0.18402,-0.19837 -0.44056,-0.31371 -0.71107,-0.3197c-0.55157,-0.01195 -1.00863,0.42502 -1.02148,0.97656l-0.27344,7.16406c-0.72903,0.22602 -1.43221,0.47028 -2.10352,0.73438l-0.04492,-3.10156c0.00009,-0.27036 -0.10929,-0.52924 -0.3032,-0.71764c-0.19392,-0.1884 -0.45584,-0.29025 -0.72609,-0.28236c-0.26525,0.00768 -0.51656,0.12047 -0.69863,0.31352c-0.18206,0.19305 -0.27994,0.45054 -0.27208,0.71578l0.05664,3.94531c-2.57402,1.28944 -4.78497,3.42274 -6.63086,5.9082l-8.53125,-8.19727c6.33389,-8.31325 14.63917,-11.9407 27.53125,-12.43555c0.72119,-0.02765 1.42462,-0.0269 2.11133,-0.00195zM65.5918,27.44727c-0.38667,-0.04997 -0.78369,0.12933 -0.99219,0.48633c-0.279,0.476 -0.11858,1.08819 0.35742,1.36719c0.476,0.279 1.09014,0.11858 1.36914,-0.35742c0.279,-0.477 0.11858,-1.09114 -0.35742,-1.36914c-0.11925,-0.0695 -0.24806,-0.1103 -0.37695,-0.12695zM35.76367,28.31641c-0.38667,-0.05006 -0.78369,0.13053 -0.99219,0.48828c-0.279,0.476 -0.11858,1.08819 0.35742,1.36719c0.476,0.278 1.08819,0.11662 1.36719,-0.35937c0.279,-0.476 0.11858,-1.08919 -0.35742,-1.36719c-0.11925,-0.06975 -0.24611,-0.11222 -0.375,-0.12891zM26.56836,32.67383l8.56055,8.22656c-0.55726,0.86585 -1.08372,1.75205 -1.55859,2.6543c-0.02258,0.0429 -0.04205,0.08598 -0.06445,0.12891l-5.39062,-2.875c-0.14652,-0.08107 -0.31106,-0.12405 -0.47852,-0.125c-0.46211,-0.00183 -0.8653,0.31319 -0.9753,0.76203c-0.11,0.44883 0.10183,0.91458 0.51241,1.12665l5.45313,2.91211c-0.44687,0.97626 -0.84814,1.95285 -1.17773,2.91602l-5.82617,-1.82031c-0.09531,-0.03096 -0.19472,-0.04742 -0.29492,-0.04883c-0.50056,-0.00962 -0.93111,0.35239 -1.00757,0.84718c-0.07646,0.49478 0.22472,0.96987 0.70484,1.11181l5.85938,1.83008c-0.245,0.96978 -0.4183,1.92106 -0.49805,2.83594l-6.61328,0.51758c-0.55067,0.04315 -0.96209,0.52453 -0.91895,1.0752c0.04315,0.55067 0.52453,0.96209 1.0752,0.91895l6.44922,-0.50781c0.01729,0.24011 0.02169,0.4857 0.05469,0.71875c0.0596,0.42098 0.13734,0.90098 0.22852,1.4082l-3.05469,1.11523c-0.33966,0.11949 -0.58887,0.41233 -0.65248,0.76673c-0.06361,0.3544 0.06819,0.71564 0.34509,0.9458c0.2769,0.23016 0.65614,0.2937 0.99294,0.16637l2.79102,-1.01953c0.40918,1.69793 1.00897,3.61353 1.93164,5.55664l-11.37695,5.03125c-0.75271,-1.73456 -1.30521,-3.54915 -1.60352,-5.42773c-2.09962,-13.22257 1.03668,-23.46948 6.16992,-31.22852c0.11876,-0.17949 0.24313,-0.34378 0.36328,-0.51953zM52.6875,51.51953l24.16797,0.90039c-0.005,2.7343 -0.11117,14.63021 -2.98437,22.28906c-1.38393,3.68906 -4.46107,6.70362 -8.40625,8.92188l-4.48242,-9.96875c1.63597,-0.76273 2.97006,-1.67513 4.04492,-2.65625l2.16797,2.92578c0.20817,0.29942 0.56281,0.4618 0.92549,0.42375c0.36268,-0.03805 0.6759,-0.27049 0.8174,-0.60659c0.1415,-0.3361 0.08884,-0.72258 -0.13742,-1.00857l-2.37891,-3.21094c0.29909,-0.37085 0.57183,-0.74619 0.81055,-1.12109c0.23889,-0.37519 0.43984,-0.7489 0.625,-1.11914l4.18359,1.26172c0.52909,0.15964 1.08743,-0.13985 1.24707,-0.66895c0.15964,-0.52909 -0.13985,-1.08743 -0.66895,-1.24707l-4.01172,-1.20898c0.67151,-2.11997 0.61133,-3.75195 0.61133,-3.75195c-0.05379,-1.03221 -0.88517,-1.85344 -1.91797,-1.89453l-2.85742,-0.11328l2.31836,-2.74023c0.25865,-0.29746 0.31845,-0.71911 0.1527,-1.07676c-0.16575,-0.35765 -0.52612,-0.58457 -0.92028,-0.57949c-0.29401,0.00442 -0.57118,0.138 -0.75781,0.36523l-3.32617,3.93164l-1.94922,-0.07617l1.31445,-4.13867c0.10204,-0.30604 0.05018,-0.64251 -0.13926,-0.90363c-0.18945,-0.26112 -0.49322,-0.41482 -0.81581,-0.41278c-0.43866,0.00273 -0.82435,0.291 -0.95117,0.71094l-1.48047,4.66211l-6.08398,-0.24023zM22.19336,57.0332c-0.38667,-0.05011 -0.78369,0.12933 -0.99219,0.48633c-0.279,0.476 -0.11662,1.09014 0.35938,1.36914c0.476,0.279 1.08819,0.11662 1.36719,-0.35937c0.279,-0.477 0.11858,-1.08919 -0.35742,-1.36719c-0.11925,-0.06975 -0.24806,-0.1122 -0.37695,-0.12891zM25.02539,64.53906c-0.3863,-0.04997 -0.78294,0.12933 -0.99219,0.48633c-0.279,0.476 -0.11858,1.08819 0.35742,1.36719c0.476,0.279 1.09014,0.11858 1.36914,-0.35742c0.279,-0.477 0.11663,-1.08919 -0.35937,-1.36719c-0.119,-0.0695 -0.24623,-0.11225 -0.375,-0.12891zM33.94922,66.59375c0.34296,0.58847 0.71587,1.17201 1.12695,1.74414c2.31323,3.21951 5.89721,5.9926 10.89063,7.04297l-1.98437,5.28906c-0.14131,0.33772 -0.0868,0.72565 0.1421,1.01135c0.2289,0.2857 0.59561,0.4235 0.95601,0.35925c0.36041,-0.06425 0.6569,-0.32028 0.77298,-0.66748l2.12695,-5.66602c0.66142,0.07122 1.35121,0.10622 2.05664,0.11719l-0.41016,4.76563c-0.04016,0.36097 0.11854,0.71534 0.41458,0.92575c0.29604,0.21041 0.68289,0.24379 1.01059,0.08719c0.3277,-0.1566 0.54475,-0.47855 0.56701,-0.84106l0.42969,-4.98437c0.08129,-0.00535 0.15842,-0.00557 0.24023,-0.01172c0.609,-0.04576 1.19093,-0.11123 1.75977,-0.18555l1.86328,5.1582c0.11695,0.34197 0.4093,0.59424 0.76471,0.65986c0.35541,0.06562 0.71857,-0.06561 0.94993,-0.34327c0.23136,-0.27766 0.29491,-0.65854 0.16623,-0.99628l-1.74023,-4.81445c1.10714,-0.22611 2.13248,-0.50431 3.07227,-0.83203l4.56055,10.13867c-0.37487,0.17712 -0.74227,0.36173 -1.12891,0.52539c-5.33534,2.25838 -11.64932,3.16225 -16.86719,2.63086c-3.14341,-0.32003 -6.65075,-1.46308 -10.03125,-3.26953l2.45703,-3.26367c0.22986,-0.29729 0.27365,-0.69835 0.11339,-1.03825c-0.16027,-0.3399 -0.49755,-0.56127 -0.87315,-0.57308c-0.32951,-0.01035 -0.64294,0.14235 -0.83789,0.4082l-2.60352,3.45703c-0.98885,-0.60542 -1.95279,-1.2695 -2.89062,-1.98437l3.84766,-4.76758c0.25197,-0.30321 0.30231,-0.72615 0.12854,-1.08003c-0.17377,-0.35388 -0.53923,-0.57264 -0.93322,-0.55864c-0.29485,0.01044 -0.57004,0.15054 -0.75195,0.38281l-3.84961,4.76953c-0.82468,-0.71009 -1.60571,-1.4679 -2.35547,-2.25586l2.85547,-2.39453c0.33475,-0.27195 0.45745,-0.72787 0.3044,-1.1311c-0.15304,-0.40323 -0.54734,-0.66293 -0.97823,-0.64429c-0.22525,0.00952 -0.44067,0.09486 -0.61133,0.24219l-2.9043,2.43555c-1.24951,-1.49453 -2.36074,-3.09222 -3.26562,-4.79102zM48.44531,83.92969c-0.3863,-0.05006 -0.78294,0.13053 -0.99219,0.48828c-0.279,0.476 -0.11858,1.08819 0.35742,1.36719c0.476,0.278 1.09014,0.11858 1.36914,-0.35742c0.279,-0.476 0.11662,-1.09114 -0.35938,-1.36914c-0.119,-0.06975 -0.24623,-0.11222 -0.375,-0.12891z"></path></g></g></svg>