<svg viewBox="0 0 120.994 120.884" width="120.994" height="120.884" xmlns="http://www.w3.org/2000/svg"><path fill="#fff" d="M111.54 119.3c.735-6.241 2.041-17.624 3.248-23.774 1.837-8.879-.958-18.358.324-27.454 2.52-15.622 5.117-31.023 5.172-46.925-.247-4.808 2.376-18.245-1.141-20.937C94.308-.565 69.558.935 44.769 2.2a138.816 138.816 0 00-31.933 1.552c-2.841-.217-7.442-.093-9.309 1.83-.542 8.869-.2 17.878-1.441 26.67C.22 60.8-1.627 89.714 2.412 118.214c18.321 1.018 36.563-.3 54.721 1.489 10.756-1.714 21.53 2.239 32.3.9a162.165 162.165 0 0122.107-1.3"/><path fill="#6d6f72" d="M44.721 14.597a1.416 1.416 0 00.07-.156 1 1 0 01.831-.708 1.529 1.529 0 011.148.188 2.447 2.447 0 01.414.4 1.8 1.8 0 01.152.214c.034-.067.053-.109.076-.149a1.253 1.253 0 011.01-.718 1.986 1.986 0 011.11.143 1.632 1.632 0 01.992.984.9.9 0 00.053.113l.145-.21a1.741 1.741 0 011.484-.794 3.554 3.554 0 01.71.034 1.129 1.129 0 01.751.585c.067.123.111.262.173.391.019.036.062.062.093.094.029-.03.07-.056.083-.091.048-.114.078-.236.129-.349a1.294 1.294 0 01.607-.647 2.274 2.274 0 011.554-.127.534.534 0 01.345.217c.068.1.154.18.221.278a1.316 1.316 0 01.152 1.045 3.049 3.049 0 01-1.251 1.924 3.432 3.432 0 01-1.315.574c-.481.1-.96.21-1.446.284a18.172 18.172 0 01-3.072.24c-.4 0-.795.016-1.19 0-.7-.036-1.4-.129-2.1-.133a18.023 18.023 0 01-2.037-.248 10.862 10.862 0 01-1.5-.3 2.517 2.517 0 01-1.155-.653 1.189 1.189 0 01-.271-.424 8.255 8.255 0 01-.284-.939 1.5 1.5 0 01.085-.885 1.193 1.193 0 01.559-.579 4.871 4.871 0 01.632-.294 1.712 1.712 0 01.476-.147 1.362 1.362 0 011.077.417c.152.143.312.272.488.425M8.958 58.461a5.129 5.129 0 01-1.9-.6 1.048 1.048 0 01-.462-.395 1.76 1.76 0 01-.263-1.056 1.188 1.188 0 01.617-1 1.625 1.625 0 011.03-.139c.17.036.34.068.512.1a.678.678 0 01.512.391c.007.014.02.027.04.056.193-.359.35-.744.835-.765a.93.93 0 011.016.469.643.643 0 00.084-.063.922.922 0 01.84-.272 7.306 7.306 0 01.851.2.7.7 0 01.5.669 1.312 1.312 0 01-.112.626 2.2 2.2 0 01-1.29 1.307 6.7 6.7 0 01-1.769.479c-.138.011-.6.021-.691.024-.058 0-.293-.017-.349-.027"/><path fill="#1a1818" d="M97.345 62.785c1.117 1.05 2.182 2.052 3.249 3.05.35.328.714.637 1.048.986a.471.471 0 01-.007.41c-.657.755-1.336 1.485-2 2.234-.188.212-.266.2-.462-.036-.483-.595-1.015-1.143-1.545-1.685-.578-.591-1.176-1.154-1.878-1.837.037.769.032 1.387.1 1.993.14 1.189.158 1.179-.864 1.218-.858.034-1.715.1-2.572.123-.089 0-.256-.165-.262-.265-.086-1.249-.178-2.5-.209-3.752a39.313 39.313 0 00-.268-6.009c-.122-.681-.171-1.38-.235-2.073-.007-.077.1-.237.163-.241.428-.026.858-.012 1.288-.027.773-.03 1.546-.075 2.32-.1.4-.016.356.342.373.635.045.755.084 1.51.13 2.341.564-.5 1.042-.968 1.557-1.374a79.858 79.858 0 012.649-1.977.317.317 0 01.33.081c.5.758.982 1.531 1.461 2.308a.291.291 0 01-.071.23c-.527.463-1.068.907-1.591 1.375-.546.487-1.071 1-1.616 1.49-.339.3-.7.579-1.094.9M69.156 32.2c.071 2.349.144 4.543.2 6.739a16.453 16.453 0 01-.045 1.785c-.055.647-.551.5-.807.507-.8.035-1.6.07-2.393.063-.313 0-.388-.1-.386-.452.009-1.184-.025-2.658-.03-3.842 0-.307-.1-.45-.369-.445-.7.014-.566.016-1.264.032-.229 0-.334.091-.313.424.081 1.3.125 2.606.16 3.91a.4.4 0 01-.267.278c-.717.021-1.433.012-2.151.006-.368 0-.734-.009-1.1-.043a.327.327 0 01-.2-.238q-.03-3.337-.034-6.672 0-2.431.037-4.863c0-.113.17-.317.262-.317 1.433 0 1.856.037 3.288.036.283 0 .42.078.435.4.063 1.36.143 2.719.18 4.08.009.312 1.555.217 1.559.118.062-1.386.106-3.067.173-4.453a.34.34 0 01.243-.229 71.02 71.02 0 012.611 0 .383.383 0 01.248.277c0 .915-.022 2.123-.037 2.889m13.08-3.026c0 1.025-.022 1.965 0 2.9.036 1.287-.2 2.578-.068 3.854.109 1.056.057 1.616.863 1.11a1.95 1.95 0 00.74-1.319c.111-1.677.078-3.367.106-5.051.009-.443.026-.888.067-1.329a.326.326 0 01.21-.232c.919-.051 1.71-.086 2.631-.112a.991.991 0 01.319.083c0 .776.122 1.5.127 2.222a17.322 17.322 0 01-.1 3.053c.015.484-.175 1.8-.091 2.279a5.96 5.96 0 001.384 1.844c.728.555.733.641.134 1.384-.292.361-.759.889-1.077 1.216a.439.439 0 01-.472.017c-.457-.4-.38-.466-.712-.9-.072-.022-.4-.769-.748-.689a2.93 2.93 0 01-1.6 1.323c-1.276.477-1.421.671-2.735.142a3.691 3.691 0 01-2.433-3.5c-.128-1.946-.093-3.884-.235-5.828a22.585 22.585 0 01-.014-2.356c.016-.55.45-.3.643-.3.965-.006 1.705.067 2.67.12a2.392 2.392 0 01.388.076m9.31-10.519c.5.075 1 .112 1.5.234a1.674 1.674 0 011.038 1.21 8.627 8.627 0 01.436 2.99c0 .927 0 1.853.006 2.781 0 .253-.076.261-.328.245-.522-.035-1.047-.034-1.567-.082-.077-.007-.2-.2-.2-.315-.035-.961-.042-1.789-.068-2.751a1.446 1.446 0 00-.107-.529c-.06-.13-.2-.3-.3-.3a.426.426 0 00-.283.3 83.465 83.465 0 00-.062 3.281c0 .261-.014.327-.258.314a13.555 13.555 0 00-1.589.015c-.3.02-.414-.026-.419-.427-.024-1.715-.1-3.3-.133-5.013-.017-1.017.052-2.036.026-3.053-.029-1.1-.133-2.464-.178-3.563 0-.119.164-.349.261-.355a8.809 8.809 0 011.6.015c.142.016.352.32.366.509.108 1.427.175 3.126.252 4.487m1.025 14.296c.017.489.517.52.974.472a3.315 3.315 0 013.5 2.138c.913 2 .509 3.943-1.466 5.031a6.63 6.63 0 01-3 .54 21.144 21.144 0 01-2.631-.052.64.64 0 01-.443-.4 3.9 3.9 0 01-.067-.977c-.006-.493.025-.987 0-1.479s.091-.708.56-.691c.958.035 1.918.01 2.877.01h.1c.637 0 1.042-.281 1.079-.741.035-.415-.358-.781-.979-.858a4.671 4.671 0 00-1.176-.035 2.282 2.282 0 01-2.423-1.22 5.4 5.4 0 01-.517-3.6 2.08 2.08 0 011.524-1.56 16.9 16.9 0 012.536-.323c1.048-.076 2.1-.092 3.15-.123.075 0 .214.093.214.14a52.61 52.61 0 01-.091 2.724c-.006.088-.3.2-.461.217-.832.091-1.668.137-2.5.237-.247.031-.709.214-.754.555m14.88 23.454c.559 0 1.119-.009 1.678.009.092 0 .258.12.261.189.025.881.03 1.761.03 2.643 0 .253-.1.268-.332.242a3.825 3.825 0 00-2.292.034 2.086 2.086 0 00-.8.754.745.745 0 00.525 1.113 7.9 7.9 0 011.74.465c1.235.653 1.843.749 1.945 2.672a9.3 9.3 0 01-.084 2.186 2.32 2.32 0 01-1.51 1.976 9.243 9.243 0 01-4.218.494 4.13 4.13 0 00-.991.106c-.224.025-.338-.055-.343-.355-.015-.99-.061-1.979-.076-2.968a.328.328 0 01.215-.236c.522-.017 1.047.039 1.565-.009.737-.067 1.469-.191 2.2-.309a.659.659 0 00.5-.831 1.264 1.264 0 00-.441-.821 17.976 17.976 0 00-1.74-.691c-.791-.332-1.608-.632-1.946-1.673a4 4 0 01.5-3.346 3.2 3.2 0 012.748-1.559c.288-.027.575-.072.863-.109zm-7.809-37.538a12.835 12.835 0 012.021-.043c.9.222 1.258.5 1.356 1.459.145 1.4.169 2.823.241 4.237a7.931 7.931 0 00.058 1.078c.084.476-.1.539-.433.514-.482-.036-.965-.045-1.447-.092-.068-.006-.181-.155-.185-.245-.058-1.339-.1-2.813-.16-4.153-.542-.314-.892-.381-1.11-.058a1.15 1.15 0 00-.123.356c.017.636.084 1.271.081 1.905 0 .664-.068 1.463-.118 2.125 0 .047-.109.12-.168.12-.46 0-.922 0-1.382-.026-.067 0-.186-.092-.188-.145a180.34 180.34 0 01-.052-3.2c-.006-.794 0-1.586.01-2.378a44.38 44.38 0 01.083-2c0-.061.133-.148.211-.159a3.685 3.685 0 01.5 0c.707 0 .707 0 .809.708m6.477 35.197c-.616 0-1.235.006-1.851-.009a.3.3 0 01-.2-.2c-.009-.689 0-1.38.015-2.068.012-.392.3-.318.506-.319.506 0 1.015.076 1.518.032a2.426 2.426 0 00.882-.343.441.441 0 00.025-.737 3.893 3.893 0 00-.774-.463 2.1 2.1 0 01-1.292-2.313 1.722 1.722 0 01.9-1.372 6.406 6.406 0 014.015-.646c.1.016.247.217.263.349.052.457.056.92.077 1.381.014.3-.075.468-.371.443a3 3 0 00-.851 0c-.2.043-.551.236-.545.343a1.531 1.531 0 00.308.814c.138.175.4.226.607.323a1.951 1.951 0 01.923 2.642 3.205 3.205 0 01-.563 1.189 3.755 3.755 0 01-1.513.8 13.13 13.13 0 01-2.077.2v-.045M61.08 51.634c.589-.045 1.276-.088 1.959-.16.1-.01.265-.171.258-.248-.012-.154-.1-.4-.194-.427a6.456 6.456 0 00-1.2-.176 1.852 1.852 0 01-1.526-1.694 2.748 2.748 0 011.058-2.639 2.651 2.651 0 012.376-.61c.433.068.862.185 1.29.291.057.014.145.094.147.147a39.53 39.53 0 010 1.54c0 .463-.32.455-.585.481-.535.053-1.078.045-1.61.133-.19.031-.355.271-.532.415.2.152.391.407.6.433a3.656 3.656 0 011.756.4 2.333 2.333 0 01.938 2.141 1.968 1.968 0 01-.995 1.8 4.412 4.412 0 01-2.732.607c-.533-.07-1.077-.019-1.616-.043-.081 0-.225-.123-.226-.194a32.175 32.175 0 01-.009-2.037c0-.071.2-.165.324-.189a2.105 2.105 0 01.508.04m17.075-27.099c.035-2.183.1-4.368.093-6.552-.006-1.428.092-2.308.015-3.735-.031-.581.084-.681.575-.636.544.05.862-.015 1.408.009a.38.38 0 01.246.271c.07 1.916-.043 3.285-.047 5.2 0 1.947-.133 6.344-.153 6.594-.021.283.041.59-.415.414a3.012 3.012 0 00-1.237-.043c-.319.019-.478-.076-.458-.488.016-.344-.012-.689-.02-1.035h-.007m8.295-3.538a4.134 4.134 0 00.555.236 2.2 2.2 0 011.4 1.15 2.527 2.527 0 01-1.15 3.308 5.334 5.334 0 01-2.919.343.536.536 0 01-.309-.4 13.809 13.809 0 01.026-1.5c0-.055.127-.137.2-.144.542-.053 1.086-.076 1.626-.14a1.022 1.022 0 00.535-.217c.135-.114.318-.379.281-.492a.769.769 0 00-.443-.385 9.654 9.654 0 01-1.515-.537 1.564 1.564 0 01-.709-1.478 1.609 1.609 0 01.773-1.417 4.2 4.2 0 012.726-.508.245.245 0 01.179.153 9.984 9.984 0 01.058 1.29.422.422 0 01-.479.448 3.714 3.714 0 00-.811.14c-.006.048-.012.1-.02.149M74.481 46.611a2.867 2.867 0 012.029-.985 3.972 3.972 0 011.885.43 2.388 2.388 0 011.228 2.161c.1 1.315.073 2.916.1 4.24.006.273.021.546.047.817.084.876.021.948-.758.848a2.782 2.782 0 00-.287-.019c-1.122-.019-.8.1-.9-1.131-.082-.963.024-2.216-.006-3.187-.035-1.124-.91-2.027-2-1.595a1.335 1.335 0 00-.708 1.278c-.068 1.182-.045 2.51-.02 3.7.021.982.046.975-.785.982-.392 0-.785-.111-1.175-.068s-.53-.04-.527-.574c.014-1.589-.068-3.177-.091-4.767-.015-1.045.007-1.818.026-2.864a.253.253 0 01.181-.171c.507 0 1.013.009 1.518.042.07 0 .178.144.189.233a5.731 5.731 0 01.047.632m28.324-17.544c0 .7.012 1.318-.012 1.934 0 .106-.176.288-.27.287a48.384 48.384 0 01-2.218-.1c-.322-.017-.538.071-.51.519.019.318 0 .968 0 1.39.863-.078 1.241.129 2.058.019.394-.053.537.063.512.524-.03.551 0 1.108-.042 1.656a.522.522 0 01-.35.359c-.748.055-1.052.052-1.8.092a.345.345 0 00-.211.256c-.016.958-.01 1.77-.01 2.638.909 0 2.333-.007 3.25 0a8.017 8.017 0 011.09.087.344.344 0 01.212.246c.038.673-.057 1.2-.057 1.879 0 .1-.134.274-.214.281-1.305.1-3.117-.113-4.425-.04-.468.026-.94 0-1.407.041-.354.029-.506-.15-.512-.528-.04-2.455-.07-4.912-.116-7.368a83.77 83.77 0 00-.129-3.685c-.025-.395.138-.465.364-.471 1.513-.036 3.024-.055 4.537-.073a.866.866 0 01.257.052M68.49 25.346c-.41.519-.643.779-1.145.765a12.552 12.552 0 01-1.617.007c-.891-.154-1.213-.955-1.418-1.913a12.519 12.519 0 01-.3-1.708 13.388 13.388 0 01.158-3.594 5.509 5.509 0 011.892-.062c.057 0 .156.232.154.354l-.094 3.05a4.194 4.194 0 00.061.9c.119.615.472 1.007.9.6a2.274 2.274 0 00.65-1.766c-.006-.4-.052-2.282-.078-2.685-.016-.281.058-.435.345-.4.407.047 1.071-.084 1.474-.016.224.024.224.142.252 1.143a19.371 19.371 0 01-.055 2 9.276 9.276 0 01-.315 1.707 4.249 4.249 0 00.821.416c.431.128.366.35.215.66-.173.353-.345.705-.535 1.043-.138.248-.306.358-.55.111a8.674 8.674 0 00-.812-.6m23.326 21.57a4.1 4.1 0 013.357-1.448c.376.006.744 0 .622.683a5.24 5.24 0 00.022 1.23c.017.284-.011.407-.317.476a9.865 9.865 0 00-2.069.653 3.37 3.37 0 00-1.363 1.979c-.231 1.249.129 2.037-.077 3.29-.051.309-.112.468-.424.44-.474-.045-1.191-.011-1.666-.067a.518.518 0 01-.3-.388c-.011-1.454.011-2.909.02-4.363.006-1.11-.007-2.221.026-3.33 0-.152.206-.35.355-.425.122-.061.3.037.455.055.364.038.795-.051 1.068.148.2.145.193.667.288 1.068m14.284-5.78c-.118 0-.334-.117-.342-.186a6.2 6.2 0 01.031-1.831.352.352 0 01.4-.271c.982-.024 2.438.022 3.418-.019.551-.024.632.155.633.465 0 .551.036 1.1.022 1.653 0 .079-.186.212-.3.219-.394.019-3.126-.024-3.859-.03m-3.001 3.295c.147-.3.349-.707.594-.781.4-.122.643.3.653.722a16.415 16.415 0 01-.1 2.14.642.642 0 01-.427.455.652.652 0 01-.538-.344 6.555 6.555 0 01-.185-2.191m-8.012-21.057c0-1.238-.009-2.735.014-4.232 0-.134.2-.384.3-.379a11.4 11.4 0 011.5.188c.072.014.174.18.178.279.051 1.252.078 2.506.127 3.758.037.935.106 1.869.133 2.8a.414.414 0 01-.261.3 14.371 14.371 0 01-1.551-.061.379.379 0 01-.253-.261c-.073-.71-.116-1.425-.188-2.4m.851-5.282a.792.792 0 01-.789-.858c0-.416.364-.93.652-.81.32.135.746.4.832.714a.75.75 0 01-.7.954M83.24 19.874l.124 5.578c.006.278 0 .515-.354.513s-.7.111-1.048.143c-.388.037-.555-.263-.508-.635a37.081 37.081 0 00-.149-6.057c-.015-.438.025-.679.5-.574a2.848 2.848 0 00.908-.047c.3-.034.564-.062.481.452a1.926 1.926 0 00.048.627m-1.017-1.697a.763.763 0 01-.732-.707c0-.589.348-1.053.795-1.058.334 0 .73.482.719.884a.887.887 0 01-.782.881M67.362 62.333c.3.159.771.376 1.213.638a3.3 3.3 0 011.318 2.371 6.874 6.874 0 01.011 1.575 2.07 2.07 0 01-1.442 1.822 7.584 7.584 0 01-4.374.646c-.912-.113-1.833-.135-2.749-.22a1.175 1.175 0 01-.636-.211.831.831 0 01-.195-.565c-.015-1.19.02-2.381-.007-3.571-.034-1.459-.179-2.921-.152-4.378a30.62 30.62 0 01.379-3.423.456.456 0 01.347-.278c1.939.007 3.878.068 5.815.052 1.374-.011 1.94 1.221 2.1 2.183a3.117 3.117 0 01-.54 2.454 5.488 5.488 0 01-1.092.9"/><path fill="#fff" d="M63.561 65.557a6.653 6.653 0 00.032 1.153c.02.122.216.314.324.311q1.362-.043 2.721-.154a1.207 1.207 0 001.165-1.339c.012-.785-.292-1.191-1.1-1.263-.939-.083-1.887-.084-2.828-.083-.12 0-.327.215-.342.349a6.943 6.943 0 00.026 1.027m-.129-4.9a17.586 17.586 0 001.939-.078c.534-.078 1.195.045 1.452-.71.185-.543.01-1.238-.422-1.259-.917-.048-1.837-.048-2.756-.053-.086 0-.247.1-.247.159 0 .657.02 1.314.035 1.943"/><path fill="#1a1818" d="M63.466 25.647c.019.358-.055.481-.4.458-.778-.05-1.779.031-2.559 0a.431.431 0 01-.313-.276c-.088-1.975.01-3.994.009-5.97 0-1.929-.077-3.3-.009-5.224 0-.145-.068-1.032.479-.971 1-.068 2.172-.094 3.175-.086a3.214 3.214 0 012.444.666c.6.566.75 2.811-.084 3.536a3.324 3.324 0 01-2.55.73c-.307-.029-.373.111-.366.407.007.359.1 5.248.179 6.727"/><path fill="#fff" d="M64.621 15.11a1.346 1.346 0 01.622 1.071c-.015.576-.053.448-.561.682a3.294 3.294 0 01-1.765.185c-.093.021-.355 0-.337-.369a8.757 8.757 0 010-.965c-.045-.732-.015-.768.614-.76a3.114 3.114 0 011.432.156"/><path fill="#1a1818" d="M73.353 18.883a3.305 3.305 0 013.547 1.1 3.884 3.884 0 01.718 2.442 5.434 5.434 0 01-.94 2.777 3.07 3.07 0 01-2.02.919c-.751 0-1.3-.769-1.484-1.262-.065-.169-.211-.068-.255.05a2.82 2.82 0 00-.016.563c.011.42.088.625-.214.65a6.1 6.1 0 01-1.579 0c-.191-.037-.207-.587-.215-.888-.042-1.618 0-3.239-.024-4.858-.025-1.658-.1-2.776-.138-4.434-.012-.559 0-1.659.057-2.215.007-.079.308-.159.476-.17.452-.032.795.02 1.241-.051.672-.106.758.014.738.823-.036 1.507.107 3.017.107 4.556"/><path fill="#fff" d="M73.625 22.514c.024-1.2.407-1.444 1.254-1.4a1.016 1.016 0 01.945 1.109 1.207 1.207 0 01-1.146 1.223c-.7-.026-1.064-.349-1.053-.933"/><path fill="#1a1818" d="M88.989 43.039c-.006-.124.1-.33 0-.34-.537-.052-1.812-.076-2.351-.072-.7 0-1.41.034-2.113.082-.071 0-.188.216-.188.33 0 .7.041.992.041 1.689 0 1.165-.043 1.17-.953 1.227a3.227 3.227 0 00-2.9 1.776 6.867 6.867 0 00-.21 3.976 4.032 4.032 0 001.55 2.239c1.022.748 3.534.133 3.7-1.34 0 .364-.02.683.009 1 .015.165.092.435.184.46a2.717 2.717 0 00.857.071c.592-.027 1.184.022 1.775.01.512-.011.684-.343.6-.923a4.541 4.541 0 010-.61c-.029-1.288.051-1.637 0-2.924-.093-2.351.124-4.3 0-6.647m-4.736 7.863c-.717-.011-1.329-.411-1.283-1.159a1.343 1.343 0 011.416-1.3c.745-.006 1 .329 1.011 1.3 0 .789-.364 1.167-1.144 1.155m-9.646 5.696a9.885 9.885 0 012.5.651 8.506 8.506 0 012.064 1.872 5.386 5.386 0 011.113 2.957 5.793 5.793 0 01-.476 3.131 8.336 8.336 0 01-2.557 3.255c-1.3 1.12-4.151 1.122-5.262-.163a10.119 10.119 0 01-1.218-2.324 11.485 11.485 0 01-.733-5.291 3.5 3.5 0 011.241-2.8 4.908 4.908 0 013.324-1.292"/><path fill="#fff" d="M74.739 60.829a1.236 1.236 0 00-1.325 1.259 1.467 1.467 0 001.42 1.632 1.814 1.814 0 001.523-1.652c0-.532-.922-1.24-1.617-1.24"/><path fill="#fff" d="M74.739 60.829c.7 0 1.62.708 1.617 1.24a1.814 1.814 0 01-1.526 1.652 1.467 1.467 0 01-1.42-1.632 1.236 1.236 0 011.325-1.259"/><path fill="#1a1818" d="M91.003 61.318a35.94 35.94 0 01-.836 4.053 9.744 9.744 0 01-1.56 2.957 3.418 3.418 0 01-1.831.888c-1.531.389-4.3-.927-5.044-2.309a5.534 5.534 0 01-.789-3.865 17.958 17.958 0 011.216-4.162 3.653 3.653 0 013.746-2.259 5.215 5.215 0 015.1 4.7"/><path fill="#fff" d="M84.961 62.314a1.307 1.307 0 001.207 1.119.96.96 0 00.914-.908c.036-.818-.455-.976-1.4-1.1-.324-.045-.719.471-.725.892"/><path fill="#fff" d="M84.961 62.314c.006-.421.4-.936.725-.892.941.127 1.432.284 1.4 1.1a.96.96 0 01-.914.908 1.307 1.307 0 01-1.207-1.119"/><path fill="#1a1818" d="M70.361 52.772a2.4 2.4 0 01-2.319 1.4c-1.04 0-1.612-.6-1.756-1.759-.2-1.656.252-2.585 1.489-3.219a2.051 2.051 0 011.621.056c.17.093.425.286.575.168a3.849 3.849 0 00-.072-1.671c-.045-.253-.569-.3-.74-.282-.118.012-.272.319-.3.466.022.446-.111.58-.349.615a11.484 11.484 0 01-1.589-.011c-.222 0-.328-.561-.2-1.153a2.132 2.132 0 01.934-1.476 3.437 3.437 0 011.941-.315 2.324 2.324 0 012.191 1.59 16.937 16.937 0 01.2 4.94c-.031.559 0 1.123-.025 1.683a.406.406 0 01-.231.3 5.4 5.4 0 01-.9.073c-.438.012-.579-.2-.493-.707.009-.047.015-.6.026-.7"/><path fill="#fff" d="M68.53 52.228a.866.866 0 01-.919-.894 1.019 1.019 0 01.933-.9c.662-.016.9.3.977 1.04.047.441-.369.735-.991.755"/><path fill="#1a1818" d="M101.755 46.794a3.285 3.285 0 00-2.963-1.272c-.463.1-1.05.022-1.361.323a3.684 3.684 0 00-1.259 2.49c-.017.337-.053.673-.1 1.006a6.3 6.3 0 00.307 3.086c.523 1.418 2.741 1.918 3.685 1.52a4.456 4.456 0 002.559-3.635 4.512 4.512 0 00-.866-3.519m-1.387 2.795c-.075.632-.307 1.274-1.115 1.17-.694.024-1.072-.392-1-1.336a1.141 1.141 0 01.738-.775c.609-.119 1.447.315 1.374.941M78.064 35.164a7.408 7.408 0 01-.816 3.736 5.572 5.572 0 01-.646.862 3.159 3.159 0 01-4.863.429 5.725 5.725 0 01-1.247-2.043 9.04 9.04 0 01-.758-2.881 15.03 15.03 0 01.4-3.647c.568-2.663 3.516-2.973 5.349-2.157a4.18 4.18 0 012.03 2.195 8.173 8.173 0 01.551 3.509"/><path fill="#fff" d="M73.963 36.779a1.371 1.371 0 001.467-1.423 1.581 1.581 0 00-1.463-1.839c-.728-.075-1.674.617-1.661 1.29.02.961.274 2.022 1.657 1.972"/><path fill="#1a1818" d="M110.835 19.354c-.286-.319-.607-.6-.9-.908-.261-.277-.466-.2-.693.063-.306.359-.635.692-.934 1.013a3.853 3.853 0 00-.384-.337 2.4 2.4 0 00-2.118-.227 1.929 1.929 0 00-.825.473 4.338 4.338 0 00-1.192 3.835 4.208 4.208 0 00.919 1.83c-.92.932-.961 3.2-.188 3.943-.442.364-.969.4-1.359 1.643a5.082 5.082 0 00.22 3.185 3.436 3.436 0 002.124 1.531 10.024 10.024 0 002.521.017 2.885 2.885 0 002.349-2.741c.137-1.539-.016-3.28-1.557-3.933a10.152 10.152 0 00-1.256-.438 1.237 1.237 0 01-.508-1.8c.091-.076.173-.191.274-.222a4.986 4.986 0 001.61-.595 3.342 3.342 0 00.886-4.194.222.222 0 010-.178 7.586 7.586 0 011-1.256c.358-.3.207-.489.015-.7m-2.972 12.847c.025.686-.14.934-.729 1.069a6.6 6.6 0 01-1.929-.2 1.437 1.437 0 01-.477-.874 4.187 4.187 0 01.373-1.6c.33-.311.735-.289 1.139-.463.84-.361 1.6 1.411 1.623 2.073m-.982-8.453a1.277 1.277 0 01-1.04-1.21c-.021-.666.486-1.4.965-1.4a1.294 1.294 0 011.271 1.231 1.218 1.218 0 01-1.2 1.38m-77.336-6.682a.882.882 0 00-.5 1.315c.123.262.036.477-.217.532a.818.818 0 00-.215.123c.034.073.071.145.1.222a1 1 0 01.035.152c-.043.011-.107.051-.125.031-.078-.084-.188-.179-.2-.286a.342.342 0 01.324-.433c.185-.03.229-.133.113-.337a1.17 1.17 0 01.129-1.213c.193-.235.427-.435.722-.206a1.7 1.7 0 01.282.312c.016.021-.012.094-.02.143a.474.474 0 01-.1-.055c-.123-.112-.242-.229-.318-.3m1.015 3.97c-.149.147-.421.237-.54.428-.132.271 0 .4-.048.584a.244.244 0 01-.063.1c-.006.006-.051-.025-.061-.048a.756.756 0 01.02-.787c.194-.248.417-.455.693-.277"/><path fill="#1a1818" d="M58.672 52.246a6.026 6.026 0 00-.356-1.48 10.171 10.171 0 00-.971-1.566 12.377 12.377 0 00-1-1.484c-.5-.54-.636-1.017-1.179-1.518a22.093 22.093 0 00-2.059-1.395c-.508-.272-1.071-.427-1.6-.648-.641-.267-1.266-.574-1.911-.818s-1.3-.426-1.956-.642c-.39-.13-1.035-.271-1.42-.42a1.5 1.5 0 01-.024-.664c.2-.045.5-.022.554-.135.235-.466.419-.979-.169-1.345-.112-.071-.255-.084-.373-.147a.222.222 0 01-.093-.164c-.01-.272 0-.545 0-.818a1.064 1.064 0 00.406-.609 2.605 2.605 0 00-.158-.759 1.964 1.964 0 010-.324.726.726 0 00.22-1.131c-.021-.026-.014-.078-.014-.118v-.822c-.02-.149.063-.32.039-.471-.066-.383-.237-.753-.263-1.134-.036-.569.037-1.144.025-1.715-.007-.345-.016-.687.412-.822a.658.658 0 00.432-.7 2.943 2.943 0 00-.343-.919c-.091-.2-.325-.356-.343-.548-.036-.43.056-.871.034-1.3a8.24 8.24 0 00-.189-1.186 2.088 2.088 0 00-.944-1.571 4.755 4.755 0 00-2.663-.451c-.051 0-.1-.039-.155-.06a.632.632 0 01.087-.122.344.344 0 00-.043-.6c-.411-.274-.82-.551-1.216-.847-.209-.155-.364-.44-.589-.512a8.107 8.107 0 00-1.278-.22.393.393 0 00.048-.082c.067-.184.234-.466.174-.535-.129-.153-.432-.327-.558-.262a2.331 2.331 0 00-.816.693 13.669 13.669 0 00-.945 1.6 9.283 9.283 0 00-.619 1.4c-.241.728.145 1.41.236 2.113.036.282-.057.383-.322.456a1.409 1.409 0 00-.746.524c-.111.165 0 .5.026.754a8.705 8.705 0 00.181 1.125c.05.194.308.364.3.53a7.89 7.89 0 01-.272 1.816 1.746 1.746 0 01-.963 1.237 7.056 7.056 0 01-.724.292 5.022 5.022 0 01-1.559.3 3.392 3.392 0 01-2.488-1.515 2.974 2.974 0 01-.363-.883c-.1-.353-.152-.723-.245-1.079-.052-.2-.22-.386-.207-.569a6.57 6.57 0 01.226-.9 1.591 1.591 0 00-.544-1.507.829.829 0 00-.261-.149 1.071 1.071 0 00-.353-.039c.017-.16 0-.345.032-.5a9.013 9.013 0 00.2-1c0-.073.22-.193.334-.189a4.488 4.488 0 001.1.089 1.776 1.776 0 001.315-1.62 6.551 6.551 0 00-.093-1c.079.031.118 0 .179.007.016 0 .079-.027.1-.026a1.117 1.117 0 00.1-.065c.207-.232.1-.342.124-.389s.081 0 .133-.017a.172.172 0 00.113-.06.469.469 0 00.067-.168.5.5 0 00-.072-.345.565.565 0 00-.076-.12 1.11 1.11 0 00.4-.718c.006-.043.134-.329.2-.35 0 0 .174.165.274.237.231.168.41.294.64.231a.966.966 0 00.621-.851 4.043 4.043 0 01.174-.912 15.287 15.287 0 01.786-1.669c.112-.2.338-.455.52-.466.656-.035.847-.237 1-.855a1.649 1.649 0 00-.448-1.426 5.713 5.713 0 00-1-.879.645.645 0 00-.365-.1c-.476-.015-.936.284-1.428.036a4.809 4.809 0 00-.958-.325 6.1 6.1 0 00-1.518-.314 2.78 2.78 0 00-1.068.446c-.509.256-1.29.155-1.761.483-.606.421-.922 1.241-1.48 1.738a1.216 1.216 0 00-.453.7 10.383 10.383 0 00.133 1.971 8.923 8.923 0 00.407.958c.106.373.178.729.6.789.026 0 .068.077.062.107-.022.117-.071.227-.1.344a5.916 5.916 0 00.041 2.408 2.419 2.419 0 01.032.966c-.113.518-.324 1.009-.479 1.517-.079.262-.125.535-.185.8-.024.113-.029.242-.053.354-.031 0-.073.051-.127.078a.657.657 0 00-.147.13c-.242.286-.476.415-.739.682-.138.139-.2.322-.473.317a1.211 1.211 0 00-.8.237 3.96 3.96 0 00-.927 1.16 11.045 11.045 0 00-.743 2.164 16.729 16.729 0 00-.288 2.234c-.062.653-.107 1.31-.109 1.965 0 .42.109.837.132 1.257.021.385-.03.773-.012 1.156.035.8.089 1.6.147 2.4.009.113.068.3.133.315a6.161 6.161 0 00.807.082v1.228c0 .068.015.178-.017.2-.076.048-.211.108-.261.071a1.594 1.594 0 00-1.163-.421 1.27 1.27 0 00-1.161.863 2.146 2.146 0 00.821 2.3 3.381 3.381 0 01.763.519c.3.251.561.555.867.8.212.169.481.26.7.416.066.046.043.211.1.3.324.522.658 1.037 1.018 1.6a24.465 24.465 0 00-2.885 5.246c-.075.175-.163.462-.273.477a1.174 1.174 0 01-.682-.158 4.391 4.391 0 01-2.052-1.713c-.309-.6-.612-1.208-.924-1.822.534-.061.948-.1 1.358-.159.225-.035.515-.042.651-.189a1.766 1.766 0 00.369-.812c.144-.723.26-1.453.337-2.187a2.913 2.913 0 00-.065-1.153c-.168-.529-.664-.684-1.136-.82-.065-.019-.152-.046-.176-.1s.021-.139.063-.186a2.275 2.275 0 00.619-1.636 18.927 18.927 0 01.166-2.007c.047-.583.1-1.168.1-1.751 0-.286-.086-.584-.3-.59-.184-.094-.247-.153-.311-.154-.16 0-.345.077-.474.017-.236-.109-.431-.311-.66-.445-.114-.068-.366-.056-.378-.116-.091-.507-.14-1.021-.2-1.548a6.907 6.907 0 001.148.082 3.5 3.5 0 001.4-.3c.57-.327.549-1.03.578-1.633a17.92 17.92 0 00-.02-1.671c-.029-.622-.058-1.247-.14-1.864a7.372 7.372 0 00-.313-1.3 5.1 5.1 0 00-.379-.76c.268-.335.573-.72.882-1.1a1.787 1.787 0 00.226-1.962c-.232-.544-.458-1.092-.684-1.631l.1-.041c-.057-.108-.093-.282-.175-.312-.724-.26-1.457-.493-2.157-.725a.341.341 0 01.058-.108c.34-.467.692-.924 1.022-1.4.39-.556.363-.635-.18-.693-.006 0-.01-.014-.015-.02a4.6 4.6 0 00.5-.628q.628-1.148 1.208-2.324.373-.755.679-1.544c.035-.091-.084-.358-.152-.365-.483-.055-.97-.055-1.453-.1-.087-.007-.165-.123-.247-.189a1.257 1.257 0 00.147-.076.259.259 0 00.066-.076c.209-.315.433-.621.612-.953.047-.089-.03-.272-.086-.392-.021-.046-.143-.043-.219-.06-.45-.1-.9-.217-1.35-.284-.488-.072-.985-.082-1.476-.143-.545-.066-1.087-.169-1.632-.237a14.527 14.527 0 00-1.463-.137 1.205 1.205 0 00-.791.164 9.61 9.61 0 00-.945 1.233c-.4.545-.816 1.077-1.191 1.639a2.945 2.945 0 00-.512 1.04A9.749 9.749 0 0011.648 20a1.268 1.268 0 01-.174.42c-.019.006-.066 0-.084.026-.147.179-.283.369-.432.546-.6.714-1.236 1.406-1.808 2.146-.261.335-.764.669-.267 1.24.153.175.173.471.293.686.252.445.4.995.936 1.182.339.119.692.191 1.084.3-.59.609-1.175 1.175-1.7 1.795a.705.705 0 00.1.638 7.937 7.937 0 00.9.15.949.949 0 01.425.41.482.482 0 01-.027.381c-.311.63-.66 1.238-.948 1.877-.091.2-.189.558.169.635a1.987 1.987 0 00.823-.036c.447-.1.773.063.807.478a8.961 8.961 0 00.086 1.218c.083.376.034.523-.327.694a17.309 17.309 0 00-1.7 1.037c.081.093.142.137.135.161-.053.193-.066.456-.191.558a4.212 4.212 0 01-.8.4c-.327.163-.816.217-.688.774a11.621 11.621 0 00.573 1.789 20.368 20.368 0 00.939 1.905 4.839 4.839 0 00.66.992c.384.419.728.966 1.43.776.108-.029.332.02.344.075.045.18.091.489 0 .554a7.988 7.988 0 01-1.071.614 1.19 1.19 0 00-.7.975 1.9 1.9 0 00.369 1.13 20.014 20.014 0 001.512 1.571c-.027.222-.047.348-.057.476-.083.965-.113 1.675 1.035 1.9.277.052.553.116.853.179a.066.066 0 01.05-.022c.319.05.637.119.958.153.514.056 1.031.083 1.545.132.123.011.318.024.353.1a6.045 6.045 0 01.289.893 9.176 9.176 0 00.356 1.377 8.85 8.85 0 00.836 1.341 2.263 2.263 0 00.473.551 13.664 13.664 0 001.266.852c.293.175.621.283.927.437.1.048.257.181.243.22a12.84 12.84 0 01-.648 1.688c-.51.99-1.053 1.965-1.637 2.909a9.925 9.925 0 01-3.285 2.826c-.422-.487-.8-.984-1.24-1.413a2.655 2.655 0 00-2.346-.63 3.474 3.474 0 00-2.526 1.49 2.814 2.814 0 00-.537 2.714 4.414 4.414 0 001.145 2.159 4.154 4.154 0 001.616.774 8.057 8.057 0 001.759.031 2.111 2.111 0 001.607-.92 5.778 5.778 0 00.749-1.411 2.29 2.29 0 00.072-1.669c-.027-.079-.014-.24.034-.271a28.563 28.563 0 002.549-1.678 15.734 15.734 0 001.677-2.21 17.972 17.972 0 001.237-2.159c.4-.759.8-1.523 1.155-2.306.308-.673.537-1.385.837-2.062.391-.881.822-1.561 1.237-2.429.159-.33.363-.658.53-.982.206-.4.617-1.223.864-1.594.36-.542.78-.8 1.119-1.354.195-.317.325-.322.686-.263 1 .16 2.2.339 3.243.507.973.156 1.943.333 2.914.507.027 0 .07.109.056.142-.189.425-.406.836-.575 1.267-.227.58-.407 1.181-.631 1.764-.168.438-.414.847-.55 1.294a7.368 7.368 0 00-.25 1.381 3.755 3.755 0 00.025 1.022c.138.794.322 1.576.479 2.365a5.222 5.222 0 01.046.523l.26 1.438c.029.128.071.3.109.477a3.978 3.978 0 00.234.981c.354.666.763 1.3 1.174 1.929s.835 1.287 1.312 1.877a23.3 23.3 0 001.673 1.825 3.649 3.649 0 001.083.836 12.845 12.845 0 002.152.643 20.051 20.051 0 002.465.41c1.134.108 2.275.183 3.412.178a8.693 8.693 0 002-.3 10.644 10.644 0 001.468-.56 9.844 9.844 0 001.535-.657 34.096 34.096 0 002.79-1.907c.667-.51.848-1.109 1.436-1.72a5.014 5.014 0 00.671-1.082 15.811 15.811 0 00.847-1.644 15.774 15.774 0 00.448-1.556c.309-1.048.529-2.08.778-3.144a9.741 9.741 0 00.247-2.262 14.129 14.129 0 00-.273-2.2M19.758 40.453c.014-.083.114-.153.19-.248.4-.006.509.23.476.656-.071.9-.091 1.8-.154 2.7a7.271 7.271 0 01-.173.869 2.841 2.841 0 01-.056.332 1.9 1.9 0 01-.3.578c.048-.35.1-.7.144-1.051.048-.421.086-.845.124-1.268.042-.465.07-.933.125-1.4a4.713 4.713 0 01.156-.616c.01-.039.03-.1.016-.112a.165.165 0 00-.124-.036c-.375.079-.489-.02-.428-.409m-.068 3.541c-.035.337-.041.677-.076 1.013a.845.845 0 01-.116.257c0-.234-.014-.471 0-.7.042-.575.089-1.15.156-1.723s.159-1.131.245-1.7c0-.027.051-.048.078-.072a.9.9 0 01.042.242c-.05.42-.113.837-.165 1.257-.06.474-.12.949-.169 1.425m-.212-1.51a12.219 12.219 0 01.276-1.435l-.486 3.8h-.073c.029-.3.052-.606.089-.907q.089-.73.194-1.457m-1.636-4.738h.051l.045.9h-.053zm.248-.388a1.035 1.035 0 01.107.3c.02.52.024 1.042.03 1.562 0 .291-.128.216-.2.16a9.8 9.8 0 00.068-2.024m3.468-9.793a1.291 1.291 0 01-.376 1.367c-.637.507-1.253 1.045-1.888 1.555-.409.328-.836.631-1.283.968a3.526 3.526 0 00-.009-.713 11.349 11.349 0 00-.388-1.307 4.478 4.478 0 00-.335-.551c-.012-.022.083-.123.142-.17.446-.354.891-.71 1.344-1.052.344-.258.708-.489 1.052-.748.407-.306.8-.63 1.185-.93.173.5.347 1.047.556 1.581M17.56 38.232c-.017-.222-.06-.442-.083-.663a1.1 1.1 0 01.012-.238s.066-.011.068 0a.885.885 0 01.066.226c.021.353.036.707.05 1.059a1.242 1.242 0 01-.016.164l-.094.007c0-.184.011-.369 0-.551m-5.643-6.89c-.251.05-.5.123-.743.195-.047.015-.083.075-.154.14a2.4 2.4 0 01.05-.309c.007-.027.077-.04.119-.05.823-.2 1.644-.416 2.474-.578.708-.138 1.427-.207 2.142-.307.416-.058.832-.118 1.249-.175.065-.009.133-.007.2-.011 0 .029.006.058.009.087-.313.031-.628.046-.939.1a10.788 10.788 0 00-2.375.506 11.2 11.2 0 01-2.032.406m1.283.089l-1.452.2-.01-.058 1.454-.191zm3.778-1.826l.061.1h-2.038v-.1zm-.7-.109v-.042h.467v.042zm.353.435a7.676 7.676 0 00-2.181.363 6.401 6.401 0 01-.19.039c-.3.052-.607.114-.914.153-.55.07-1.1.134-1.656.178a.689.689 0 01-.443-.163 26.647 26.647 0 015.384-.569m-.037.212l-1.177.125v-.073l1.176-.106v.053m-4.581-.122c-.139.025-.272.082-.411.113-.1.022-.206.03-.311.043l.039-.317s-.061.017-.063.011a.363.363 0 01-.032-.163.124.124 0 01.091-.081c.737.036 1.472.078 2.207.119.011 0 .02.017.014.011-.5.086-1.018.169-1.533.262m.615.827l-1.525.383c.058-.186.093-.293.122-.383zm3.582-.2l-.7.091v-.036l.7-.1zm1.112-.1c-.016.026-.042.12-.086.13-.858.185-1.716.368-2.577.533a5.768 5.768 0 01-1.319.113l3.982-.776m2.524-7.915c-.8 1.094-1.581 2.2-2.408 3.271a2.287 2.287 0 01-.92.717c-.145.057-.481-.241-.646-.451a5.02 5.02 0 01-.586-1.036c-.046-.1.07-.287.079-.327a9.971 9.971 0 00.8 1.187c.236.263.5.066.672-.191.3-.442.587-.892.886-1.334a5 5 0 00.7-1.048c.158-.456.543-.391.815-.571.058-.039.169.014.255.025l-.067-.1c.124-.108.247-.216.375-.32a.126.126 0 01.06.061.176.176 0 01-.015.117m-3.837 2.883a.433.433 0 01-.042-.607c.366-.453.73-.913 1.124-1.339.379-.409.395-.392.58-.32l-1.662 2.267m1.956-2.283c.06-.076.22-.067.309-.089-.616.893-1.236 1.795-1.857 2.7-.185-.1-.315-.178-.118-.426.57-.714 1.1-1.461 1.666-2.181m-2.249 1.683c-.279-.359.006-.631.226-.888a6.614 6.614 0 01.763-.741 1.622 1.622 0 01.436-.19.989.989 0 00.024.071l-1.448 1.749m6.167-7.231a.2.2 0 01.066.163 55.285 55.285 0 01-1.517 2.603c-.168.262-.355.51-.542.759a.075.075 0 01-.062.021 1.07 1.07 0 01-.1.268 6.043 6.043 0 01-.614.691c-.055.05-.283-.011-.349-.093a10.531 10.531 0 01-.835-1.189 3.861 3.861 0 01-.395-1.026c-.032-.125.133-.3.232-.508a6.194 6.194 0 00.2 1.259 2.547 2.547 0 00.621.776c.347.35.609.114.831-.189.507-.687 1.015-1.37 1.5-2.07a8.874 8.874 0 00.663-1.151c.019-.037-.232-.22-.358-.334a.842.842 0 00-.123-.06c.3.029.542.045.779.079m-3.952 1.8a4.477 4.477 0 01.5-.679c.491-.467 1.013-.9 1.523-1.341l.145.153-2.17 1.868m1.066 1.82a3.423 3.423 0 01.232-.311c.132-.143.278-.273.419-.409l.032.024c-.127.161-.246.333-.385.482a1.852 1.852 0 01-.3.214m1.325-1.738q.492-.8.982-1.592l.1.066-1.047 1.555-.04-.029m.7-1.639c-.23.395-.427.758-.646 1.105-.294.468-.589.94-.915 1.384a4.413 4.413 0 01-.661.667c-.029.026-.171-.055-.234-.117-.043-.042-.077-.176-.052-.2.255-.272.533-.52.781-.8.231-.258.436-.544.652-.818.289-.368.575-.738.871-1.1a.7.7 0 01.2-.118m-.245-.108l.025.016c-.816.955-1.633 1.909-2.463 2.877-.23-.371-.077-.641.329-.961.457-.36.863-.791 1.294-1.189.27-.25.543-.5.815-.743m-.051-.319a.785.785 0 01-.118.214c-.484.435-.981.856-1.461 1.3-.354.324-.688.669-1.031 1.006-.025-.02-.048-.041-.075-.061.061-.082.116-.168.181-.243.417-.481.823-.973 1.262-1.43a8.926 8.926 0 01.836-.689c.039-.031.065-.1.1-.1a1.935 1.935 0 01.306.012m-8.343.4c.477-.652.964-1.3 1.451-1.94a6.386 6.386 0 01.8-.99.951.951 0 01.713-.106c.446.078.876.268 1.322.349.513.093 1.037.119 1.557.171.759.076 1.525.1 2.272.245.329.065-.016.334-.072.4a24.34 24.34 0 01-1.387 1.633c-.366.392-.779.737-1.169 1.105a3.936 3.936 0 01-.621.571c-.117.067-.332-.05-.5-.086-.867-.18-1.733-.374-2.6-.538-.619-.117-1.243-.2-1.867-.288a.823.823 0 00-.207.042 5.2 5.2 0 01.314-.575m-.309 1c.708.12 1.4.235 2.09.358.733.129 1.464.281 2.2.4a.856.856 0 01.719.548 22.284 22.284 0 001.288 2.029 3.075 3.075 0 00.255.292c-.359 0-.658.025-.953 0-.984-.1-1.966-.2-2.946-.323a15.83 15.83 0 01-1.561-.27 1.211 1.211 0 01-.936-1.361 6.634 6.634 0 00-.148-.771c-.026-.263-.006-.533-.006-.925m-1.937 9.92c-.092 0-.26-.1-.27-.178a.559.559 0 01.1-.424c.422-.381.876-.725 1.312-1.092.134-.112.231-.308.379-.36a1.035 1.035 0 01.5.06c.252.051.5.113.75.176a.059.059 0 01.034.027c.3.022.565.043.831.065v.024a6.825 6.825 0 01.975.07 2.517 2.517 0 002.386-.4 8.866 8.866 0 00.619-.673.506.506 0 01.05-.047c.1-.169.152-.27.216-.358a11.383 11.383 0 01.771-1c.072-.077.306-.007.46.022.388.077.774.165 1.159.257a2.767 2.767 0 01.322.114c-.258.322-.492.658-.773.945q-.829.848-1.707 1.647a12.189 12.189 0 01-1.2.951c-.1.07-.287-.01-.433-.006-.722.019-1.442.057-2.164.062-.836 0-1.672-.04-2.506-.021-.6.014-1.2.106-1.8.14m.677.294l5.456.149v.112c-.792.048-1.586.12-2.38.138-.421.01-.845-.093-1.268-.108s-.868.035-1.3.01c-.144-.007-.281-.16-.512-.3m.5 2.864a3.771 3.771 0 01-.943-.175.315.315 0 01.016-.13 8.689 8.689 0 01.743-1.354c-.088.39-.17.781-.266 1.17-.065.261-.062.421.276.371.855-.127 1.714-.227 2.57-.34.56-.075 1.122-.138 1.678-.232.652-.113 1.3-.256 1.954-.385.147.585-.193.908-.827.79a4.293 4.293 0 00-.818.058c-.72.014-1.441-.016-2.159.024-.741.041-1.48.169-2.223.2m1.194.366l.555 2.126-.215.078c-.509-.648-.3-1.449-.34-2.2m.221.15c0-.041.084-.091.13-.137.031.041.082.077.092.123.128.642.25 1.284.374 1.928l-.1.114a.875.875 0 00-.025-.19c-.113-.324-.253-.641-.342-.973a5.407 5.407 0 01-.127-.866m-.202 1.917c.061.318.2.575.571.292a1.433 1.433 0 01.333-.091l-.645 1.05-.156-.024a13.584 13.584 0 01-.43-1.43 15.239 15.239 0 01-.159-1.638c0-.057.072-.12.112-.18a.882.882 0 01.087.2c.1.606.174 1.215.287 1.817m.864-.335l-.27-1.705.071-.014.287 1.7-.088.015m-3.564 3.469l.484 2.565c-.469-.98-.72-2.282-.484-2.565m.963 3.906l-.02.014a7.823 7.823 0 01-.532-.989c-.3-.792-.548-1.6-.811-2.407a.916.916 0 01-.009-.274.173.173 0 01.063-.017 2.724 2.724 0 01.1.288c.133.512.224 1.041.4 1.534.231.632.533 1.236.8 1.852m.048.8a3.287 3.287 0 01-1.05-1.524 10.125 10.125 0 01-.53-1.366 7.442 7.442 0 01-.349-1.648c-.022-.414.424-.481.729-.6.052-.021.109-.025.236.03-.145.145-.274.385-.44.417-.574.114-.2.483-.159.682a12.382 12.382 0 00.492 1.674 9.676 9.676 0 00.559 1.125c.2.385.417.763.627 1.144l-.116.071m.183-2.018l-.717-4.074c.037-.253.411-.453.631-.678l.966-.386c.19.313.3.705.549.861a5.506 5.506 0 001.367.528c1 .3 2 .568 3 .863.034.009.035.178.034.272-.006.344-.01.688-.032 1.03-.034.524-.473.419-.763.5-.971.274-1.954.507-2.926.776-.63.174-1.248.392-1.878.565-.053.015-.2-.15-.23-.257m.877 2.588c-.056.015-.2-.094-.219-.17-.143-.543-.263-1.093-.373-1.564a14.569 14.569 0 011.541-.53c.8-.185 1.632-.253 2.431-.457a8.25 8.25 0 001.659-.667.55.55 0 01.746.313c.288.528-.19.59-.426.717-1.129.607-2.264 1.208-3.426 1.741a13.926 13.926 0 01-1.935.617m1.68 1.5a.785.785 0 01-.148.366 4.14 4.14 0 01-.255.37c-.566-.592-.334-1.317-.34-2.008.25-.109.5-.219.748-.324a7.662 7.662 0 00-.108.9c0 .23.1.462.1.694m.872 4.872c-.468-.376-.9-.707-1.313-1.058-.533-.45-1.071-.9-1.57-1.382-.272-.266-.63-.535-.468-1.038.032-.1.07-.206.1-.3.754.532 1.514 1.072 2.279 1.606a5.819 5.819 0 01.83.568c.12.12.122.4.135.606.021.308.006.62.006 1m.145-2.085c-.436-.251-.877-.5-1.294-.784-.5-.342-.971-.72-1.456-1.083-.119-.089-.241-.174-.351-.274-.029-.025-.041-.129-.021-.144.26-.206.525-.4.807-.615a1.507 1.507 0 001.3 1.616c.794.139 1.59.273 2.39.343a14.6 14.6 0 002.046.012c.528-.03 1.051-.163 1.579-.214.077-.009.171.184.258.283-.087.057-.17.156-.261.164-.8.065-1.6.091-2.4.17a6.359 6.359 0 00-2.249.615c-.084.041-.242-.03-.345-.089m.984 1a4.526 4.526 0 00.724-.052c.8-.183 1.59-.39 2.385-.589.2-.051.4-.117.611-.148.07-.011.149.067.224.1-.06.062-.111.163-.18.181-.59.152-1.18.312-1.777.425-.756.142-1.521.242-2.284.358a1.781 1.781 0 01-.258 0v-.2l.556-.082m-.518-.243c.051-.318.148-.34.578-.4 1.149-.17 2.292-.378 3.437-.57.134-.022.27-.037.514-.071-.137.168-.2.307-.294.345a2.917 2.917 0 01-.437.041c-.845.18-1.684.388-2.532.548a11.862 11.862 0 01-1.264.112m2.2.381c.7-.133 1.394-.307 2.09-.466.057-.014.107-.079.164-.086s.1.042.153.066c-.032.037-.06.1-.1.108-.661.193-1.315.407-1.985.558-.795.179-1.6.3-2.407.431-.057.009-.138-.16-.207-.243.822-.13 1.56-.23 2.29-.368m.84.406c-.651.194-1.307.374-1.969.52a11.4 11.4 0 01-1.186.14c-.011-.056-.021-.113-.034-.169.209-.055.416-.116.625-.163.488-.112.977-.222 1.467-.324.616-.128 1.235-.236 1.848-.376a5.729 5.729 0 00.965-.325c.032-.014-.017-.274-.051-.415a2.468 2.468 0 00-.14-.342l.108-.077.539.73a.889.889 0 01-.2.154c-.655.221-1.307.448-1.969.646M15.954 66.74a3.271 3.271 0 01-1.412 1.92 3.416 3.416 0 01-1.961.391 3 3 0 01-1.854-.677 3.1 3.1 0 01-.826-1.107 6.032 6.032 0 01-.576-1.817 2.512 2.512 0 01.355-1.358 3.071 3.071 0 011.5-1.459 3.278 3.278 0 013.065.094 4.324 4.324 0 01.868.832 3.115 3.115 0 01.4.6.242.242 0 01-.092.206c-.5.19-1.009.375-1.521.53-.077.022-.215-.106-.3-.194a.917.917 0 00-1.225-.112 1.347 1.347 0 00.034 2.047.969.969 0 001.192-.366c.1-.125.149-.325.273-.406a3.106 3.106 0 01.573-.195c.489-.195.975-.4 1.471-.606a2.747 2.747 0 01.035 1.675m35.158-21.2c.621.319 1.269.579 1.884.91a11.9 11.9 0 011.146.782.074.074 0 01.007.068c-.424.491-.853.974-1.272 1.469-.456.54-.909 1.083-1.349 1.639-.566.715-1.114 1.448-1.675 2.167-.152.194-.329.366-.44.489-.209-.237-.378-.462-.58-.65a8.188 8.188 0 00-.671-.515c.323-.436.652-.835.922-1.274.063-.1-.026-.389-.13-.51-.248-.292-.574-.512-.811-.811a.758.758 0 01-.014-.543c.166-.674.361-1.34.543-2.011.2-.73.391-1.461.6-2.226.625.345 1.226.7 1.843 1.013m-3.092 10.818c-.19.078-.374.159-.563.221a.656.656 0 01-.094-.245 1.461 1.461 0 01.1-.673l.556.7m-.174-3.009a.726.726 0 01.083.138l-.168.061a3.144 3.144 0 01.057 1.02c-.067.25-.361.584-.578.6-.359.034-.309.25-.383.461a2.408 2.408 0 01-.289.548c-.123.183-.274.342-.432.534.125-.472.221-.93.369-1.367.257-.766.545-1.52.83-2.275.014-.032.147-.055.186-.026a2.569 2.569 0 01.324.3m-.114-.85a2.535 2.535 0 01.245-.273 3.91 3.91 0 00.494.416c.3.174.453.465.236.709-.17.19-.5.1-.7-.165a5.413 5.413 0 01-.339-.456c-.029-.048.016-.169.06-.231m.207 2.7h-.443l.324-.385.119.385m-1.063 1.95c-.034.081-.063.2-.124.224a2.543 2.543 0 01-.466.1c.147-.123.278-.237.415-.345a.8.8 0 01.142-.073c.012.032.042.072.034.094m-.84-.779v-2.767l.664.366-.664 2.4m.753-.222c.048.717-.15 1.012-.9 1.287l.9-1.287m2.447-1.037c-.068-.026-.079-.22-.13-.379l.774.509a3.358 3.358 0 01-.643-.13m-3.11-8.52c-.021-.508.022-1.018.048-1.528.02-.374.048-.663.082-1.1a9.451 9.451 0 012.488.421c.322.075.384.273.231.635-.082.2-.114.417-.179.622-.017.056-.376 1.232-.509 1.782s-.263 1.078-.4 1.632a20.883 20.883 0 00-1.519-1.456c-.385-.306-.229-.672-.243-1.012m-.278-6.911a3.619 3.619 0 01-.079.595c-.031.111-.153.191-.234.286-.063-.107-.179-.212-.181-.32a11.167 11.167 0 01.058-1.17c0-.045.153-.1.237-.1.042 0 .12.082.132.138.035.184.046.373.067.573m.529-5c0 .113.029.258-.026.334s-.2.119-.417.227c-.2-.036-.474-.081-.745-.14-.041-.009-.106-.1-.094-.128a2.408 2.408 0 01.219-.371.491.491 0 01.149.076.56.56 0 00.778-.01c.025-.024.138.006.138.012m-.211-5.52h.014a1.389 1.389 0 01.563.6.988.988 0 01.135.862c-.037.156-.39.3-.544.412-.36.268-.155.647-.178.976-.035.51-.041 1.023-.056 1.534-.009.3-.007.6-.029.9a.231.231 0 01-.138.166c-.05.014-.369-.1-.36-.343.019-.458-.02-.591 0-.961.015-.242 0-1.238 0-1.238a1.172 1.172 0 00.355-.565 5.532 5.532 0 00.217-1.155c.01-.088-.189-.388-.313-.4a.44.44 0 00-.41.193 1.759 1.759 0 00-.178.611 1.565 1.565 0 01-.306-.8.853.853 0 01.363-.645 1.045 1.045 0 01.867-.15m-8.282-5.881a18.465 18.465 0 011.087-1.7c.084-.12.342-.1.519-.15a1.572 1.572 0 01-.129.4c-.227.353-.476.691-.717 1.033.229.322.307.024.417-.114a.972.972 0 011.161-.389 1.631 1.631 0 00.267.05 8.2 8.2 0 00-.868.315 9.311 9.311 0 00-.843.525l.344.078a1.642 1.642 0 012.508-.089c-1.069-.328-2.1-.641-2.664.766a4.605 4.605 0 01.5-.441 1.024 1.024 0 01.551-.242c.7.051 1.39.143 2.08.257a1.771 1.771 0 01.519.312 1.5 1.5 0 01-1.284-.013 1.61 1.61 0 00-1.613 0 1.263 1.263 0 00-.17 1.574 1.5 1.5 0 001.326.512 2.466 2.466 0 01.822.186.916.916 0 01-.01.184.732.732 0 00-.129-.063c-.154-.05-.38-.184-.446-.124a2.122 2.122 0 00-.328.591c-.35 0-.8.014-1.256 0a.762.762 0 00-.77.361c-.246.406-.643.229-.985.258a1.167 1.167 0 01-.161 0 9.585 9.585 0 00-.283-1.482 2.953 2.953 0 01.558-2.581m2.8 2.448c-.294-.061-.631-.026-.794-.188a1.023 1.023 0 01-.053-1.334c.324-.523.725-.288 1.128-.094a1.622 1.622 0 00-.281 1.616m.774.759l-.317.278c-.047-.078-.119-.156-.106-.181a.608.608 0 01.212-.246c.036-.02.137.094.21.149m-3.607 2.987c.073-.084.133-.219.22-.242s.217.05.328.079c-.009.065-.017.129-.027.193-.174-.009-.347-.02-.52-.03m-6.484 7.07a5.634 5.634 0 001.067.333 4.064 4.064 0 002.222.076 4.913 4.913 0 002.788-1.82 5.316 5.316 0 00.936-2.489 21.4 21.4 0 00.056-2.226.183.183 0 01.084-.138c.876-.381.891-.381.758-1.41a6.08 6.08 0 00-.293-1.263c-.169-.472-.084-.648.525-.681a7.625 7.625 0 011.407.077c.347.045 1.1-.56 1.09-.928v-.007l.007.017a6.267 6.267 0 01.556-.782.533.533 0 01.438-.078 7.033 7.033 0 011.51.414 1.834 1.834 0 011.051 2.177 3.558 3.558 0 000 .745c.024.3-.036.36-.335.524a1.016 1.016 0 00-.268 1.6.615.615 0 01-.214.964c-.4.184-.821.311-1.233.462l-.034-.119a2.269 2.269 0 00.274-.05c.1-.029.272-.068.277-.118a.532.532 0 00-.088-.394 2.318 2.318 0 00-.625-.4c-.369-.161-.406-.525-.533-.841a2.723 2.723 0 00-.2-.369c-.122-.2-.21-.461-.384-.576a2.973 2.973 0 00-.769-.266 5.654 5.654 0 01.165-.573.321.321 0 00-.258-.473.605.605 0 00-.52.191 6.476 6.476 0 00-1.2 3c-.025.82.036 1.642.052 2.464a2.879 2.879 0 01-.042.384c-.3-.1-.635.125-.794.576a4.267 4.267 0 00-.363 1.119c.015.137.232.229.277.319.1.207-.5 1.073-.828 1.4a6.336 6.336 0 01-2.611 1.349 4.543 4.543 0 01-2.7 0c-.563-.193-1.087-.509-1.633-.76a3.122 3.122 0 01-.651-.26.915.915 0 01-.3-.548c-.063-.5-.065-1.01-.089-1.5.5.317.94.638 1.416.879m11.962-3.2a1.092 1.092 0 00-.771.02c-.173.161-.188.284-.129.424-.548.029-1.213-.221-1.6.54a1.546 1.546 0 00-.427-.147c-.366-.025-.463-.193-.466-.576 0-.483-.159-.966-.164-1.451a4.632 4.632 0 01.178-1.284c.18-.65.425-1.281.652-1.915.014-.039.113-.045.174-.061.309-.081.488-.251.4-.619a.559.559 0 01.017-.166c.072.056.212.142.2.161-.13.325-.281.642-.428.96-.009.02-.037.032-.043.053-.047.128-.089.257-.134.388a2.489 2.489 0 00.342-.224c.315-.291.6-.086.874.061a1.822 1.822 0 01.332.322 5.22 5.22 0 00-1.176.022c-.238.057-.435.325-.642.508-.015.012.031.1.047.15a2.939 2.939 0 01.3-.112 4.841 4.841 0 011.13-.281.811.811 0 01.795.669.816.816 0 01-.21-.06 1.38 1.38 0 00-1.834.332c-.027.035.012.127.022.191.055-.016.142-.015.16-.051a.845.845 0 011.056-.45 8.239 8.239 0 011.318.467 4.552 4.552 0 01.633.4l-.1.219c-.355-.116-.705-.253-1.066-.342a3.824 3.824 0 00-1.186-.178c-.137.012-.3.431-.347.684a1.25 1.25 0 00.717 1.276 1.52 1.52 0 00.5-.01 1.862 1.862 0 01.368-.077 1.371 1.371 0 01.266-.046c.238-.014.354-.043.474.017.147.13.143.426.015.457a.826.826 0 00-.248-.271m.029.425a3.273 3.273 0 01-.5.017c-.1-.014-.242-.012-.284-.139a.188.188 0 01.02-.068.5.5 0 01.455-.143c.1.009.432.13.314.333m-2.624-5.091l.195-.4.1.055-.2.395a80.52 80.52 0 00-.1-.053m1.364 4.459c-.119-.075-.283-.119-.344-.227a2.066 2.066 0 01-.286-.74c-.088-.8.26-.81.831-.651-.719.656-.764.912-.2 1.618m-12.947-5.3c.661.356.71 1.708-.032 2.544l-.953-1.067a.787.787 0 01-.114-.109c.113-.039.226-.073.342-.1.469-.22.4-.753.389-1.221 0-.12.314-.088.369-.046m2.824-4.933c-.056.083-.2.078-.3.093l-.075-.019a1.081 1.081 0 01-.108-.083l-.1-.092a2.754 2.754 0 01-.43-.589c-.02-.032-.067-.107-.043-.164.022-.035.076-.011.1 0 .272.176.538.361.811.533.122.076.225.194.143.315m.284-.425c-.065.107-.194.026-.229.014l-.864-.638c-.022-.017-.052-.027-.055-.067 0-.022.042-.03.061-.027a1.843 1.843 0 01.837.2.885.885 0 01.077.076.816.816 0 01.088.086.392.392 0 01.084.359m1.61-3.449a1.575 1.575 0 01-1.463-1.594 2.415 2.415 0 01.14-.5c.065.026.152.031.188.082a7.829 7.829 0 00.614.891 1.568 1.568 0 001.326.6c-.066.332-.309.487-.8.528m-.188-1.134a.344.344 0 00.479-.276c.056.07.191.224.311.391a1.138 1.138 0 01.1.255 1.066 1.066 0 01-.273.006 2.012 2.012 0 01-1.231-1.1c-.032-.06-.07-.116-.179-.294l.871.343a.3.3 0 00-.282.238c-.039.16.2.432.2.432m1.122.185a6.1 6.1 0 00-.828-.932 5.062 5.062 0 00-1.058-.5 1.558 1.558 0 011.462.068c.693.672.611.833.425 1.362m.207-.318a2.415 2.415 0 00-.135-.627 1.223 1.223 0 00-.929-.693 2.328 2.328 0 00-1.114.109 1.209 1.209 0 00-.522 1.032v.014a2.711 2.711 0 00.12.65 1.824 1.824 0 00.284.417c.137.128.273.217.409.344.343.319.884.106 1.268 0 .073-.019.113.1.04.123-.392.1-.914.3-1.289.047a1.457 1.457 0 01-.364-.276 1.023 1.023 0 01-.442-.571 1.052 1.052 0 01-.133-.383 1.679 1.679 0 01.333-1.443 1.014 1.014 0 01.73-.333 1.729 1.729 0 01.462-.007c.1.019.467.1.477.108a1.179 1.179 0 01.571.406 1.826 1.826 0 01.347 1.068.059.059 0 11-.117.01m-1.34-2.085a1.808 1.808 0 011.282.614 6.042 6.042 0 01.672.884.064.064 0 010 .053c-.122.137-.245.271-.384.422a1.594 1.594 0 00-1.186-1.588 1.858 1.858 0 00-.6-.07 1.681 1.681 0 00-1 .394c-.077.056-.18-.1-.314-.156a1.743 1.743 0 011.54-.548m-1.618.673l.251.184-.07.1-.214-.241.032-.043m-4.688 10.382a5.539 5.539 0 01.2-.7q.216-.7.437-1.4c.227-.719-.153-1.15-.236-1.806a3.222 3.222 0 01.138-1.969c.343-.6.024-1.156.042-1.76a3.437 3.437 0 01.482-1.194c.123-.273.3-.9.51-1 .361-.174.73-.41 1.083-.188a.584.584 0 01.253.606c-.1.262-.265.493-.389.745a3.086 3.086 0 00-.135.409c.014-.011.477.268.689.379a1.848 1.848 0 00.528.181c.042.009.122-.14.163-.23.149-.317.3-.632.426-.96.148-.386.271-.784.4-1.176.359.112.154.419.1.6a1.827 1.827 0 00.617 1.743 1.66 1.66 0 001.7.355c-.159.492-.294.966-.473 1.42a.452.452 0 01-.351.255c-.185-.026-.412-.335-.412-.335a.316.316 0 00-.026-.471.325.325 0 00-.385.266c-.076-.092-.241-.127-.36-.284a.218.218 0 01-.048-.25c.032-.06.193-.043.255-.06a.787.787 0 00.163-.045.118.118 0 00.016-.094.652.652 0 00-.18-.1.457.457 0 00-.539.395.773.773 0 00.161.363 5.031 5.031 0 00.508.414 5.119 5.119 0 01-.23.713.6.6 0 01-.143.188.873.873 0 01-.194.119 2.655 2.655 0 00-.842-.25c-.072 0-.16-.032-.232-.031a.307.307 0 00-.328.338c-.029.6.33.753.641 1.073a.384.384 0 00.088.065 1.333 1.333 0 01.083.5 3.375 3.375 0 01-.087.982 1.281 1.281 0 01-.817.85c-.236.112-.575.009-.892.019-.25.009-.512-.124-.746-.073-.117.026-.217.314-.271.5a7.285 7.285 0 00-.2 2.395c.025.432-.21.753-.55.724-.174-.015-.479 0-.5-.068a5.741 5.741 0 01-.2-1.171 5.875 5.875 0 01.087-.979m-.8 1.167a1.041 1.041 0 01.123-.123 1.018 1.018 0 01.214-.164v.273a3.365 3.365 0 00.161 1.02c.1.365.334.358.58.34a.43.43 0 00-.019.122.089.089 0 01-.015.047c-.042.384-.083.763-.13 1.139a.916.916 0 01-.078.21c-.079-.055-.186-.092-.231-.169a8.354 8.354 0 00-.486-.881 2.2 2.2 0 01-.119-1.815m-4.07 17.44c-.089-.04-.227-.057-.258-.127a7.033 7.033 0 01-.364-.955 1.664 1.664 0 01-.081-.709.861.861 0 011.267-.323c-.532.719-.812 1.792-.564 2.114m3.989 2.452c-.012.026-.051.04-.063.066-.2.46-.409.5-.638.015-.12-.26-.262-.509-.45-.868.2-.047.373-.15.487-.1a4.665 4.665 0 01.841.5 2.385 2.385 0 01-.176.389m5.292-4.93c-.183.061-.415-.051-.626-.077-.764-.093-1.067-.7-1.343-1.356a.6.6 0 00.822-.351c.007-.017.071-.015.107-.009a11.2 11.2 0 001.408.209 22.907 22.907 0 003.035-.047 9.593 9.593 0 001.915-.6 7.831 7.831 0 001.046-.379 3.438 3.438 0 001.7-1.353c.19-.358.416-.7.571-1.073.129-.306.149-.663.278-.969.067-.159.283-.24.4-.383a1.775 1.775 0 00.217-1.8 3.43 3.43 0 00-.315-.253c.011-.01.125-.178.125-.178.113-.086.171-.194.289-.2.441-.03.886-.014 1.328-.014a2.837 2.837 0 00.648-.02.576.576 0 00.448-.355.609.609 0 00-.138-.606l-.106-.106a.066.066 0 01-.006-.079c.053-.109.323-.154.361-.165a10.431 10.431 0 001.1-.359c.063-.024.286-.143.384-.191l-.012 2.27c-.436-.04-.43.343-.518.6-.024.071.152.217.18.256-.051.278-.083.53-.148.774-.021.076-.152.114-.193.193-.214.414-.289.792.217.986a.424.424 0 00-.025.632c-.224.079-.274.518-.122.76.086.133.158.113.214.193a.647.647 0 01.15.328c0 .273-.055.546-.07.821-.01.21-.06.284-.294.286-.925 0-1.852.022-2.775.093-.859.067-1.718.193-2.572.322-.8.122-1.5.3-2.293.484-.54.127-1.167.328-1.7.483-.869.255-1.752.456-2.618.724-.371.116-.7.38-1.072.5m13.1 3.606l-2.488-2.323a16.072 16.072 0 001.916-.216c.624-.147.587.2.576.636-.017.628 0 1.257 0 1.9m-.019 10.55c-.236-.345-.477-.689-.712-1.04-.5-.748-.974-1.512-1.492-2.243-.545-.77-1.155-1.492-1.683-2.274a4.6 4.6 0 01-.359-1.059 33.71 33.71 0 00-.41-1.129c-.15-.391-.315-.775-.467-1.165a2.194 2.194 0 00-1.807-1.444v-.173a6.5 6.5 0 011.247-.058 1.7 1.7 0 01.908.411c.664.635 1.292 1.317 1.9 2.011s1.2 1.433 1.786 2.164a5.312 5.312 0 01.791 1.118 4.086 4.086 0 01.2 1.215c.052.506.089 1.013.107 1.523.015.468-.006.938-.009 1.406v.739m-1.877 1.887c.012-.481.384-.424.667-.438a5.212 5.212 0 01.8.072c-.5.546-.973 1.072-1.469 1.621 0-.442-.009-.848 0-1.254m1.386-1.1c-.42.041-.846.016-1.266.053-.247.022-.494.089-.564.426-.079.379-.462.25-.687.39a1.608 1.608 0 01-.647.143.79.79 0 01-.272-.054l.025-.106a5.879 5.879 0 00.794-.2c.067-.026.1-.23.1-.354.011-.514 0-1.028 0-1.564.359.118.746.248 1.136.373.347.111.694.214 1.042.32.161.051.324.1.483.161a.1.1 0 01.039.081c-.058.118-.116.325-.189.334m-4.04 1.887c-.307-.258-.306-.627-.627-.914a.977.977 0 01.8-.052 1.248 1.248 0 01.272.37c.037.18.062.364.089.546-.079-.014-.477.1-.533.05m.858 1.909l.17-.376.553.329-.723.047m-.062-2.565l1.336-.37v1.274c-.386-.409-1.083-.255-1.336-.9m3.219-1.854c-.843-.265-1.688-.529-2.521-.826-.072-.025-.075-.279-.1-.43-.091-.5-.166-1-.27-1.493-.132-.637-.293-1.269-.422-1.907a2.93 2.93 0 01-.006-.563l.086-.065 3.746 5.369a4.06 4.06 0 01-.509-.087M34.116 42.989a.864.864 0 01.17-.091c.524-.147 1.046-.3 1.575-.43.41-.1.827-.176 1.245-.246.989-.165 1.976-.36 2.971-.469.775-.084 1.56-.055 2.341-.079.5-.016 1.011-.015 1.513-.065.6-.058.852.079.852.583 0 .083-.178.232-.278.237-.5.026-1.015-.026-1.517.025a9.21 9.21 0 00-1.55.311c-.349.1-.663.34-1.012.431-.2.053-.446-.081-.672-.1-.64-.055-1.281-.093-1.921-.139-.314-.024-.628-.053-.943-.075-.12-.009-1.11.011-1.476.035a12.013 12.013 0 01-1.3.072m.245 11.071a26.6 26.6 0 01.268-2.246 3.491 3.491 0 01.291-.812c.231-.533.476-1.059.78-1.73a10.372 10.372 0 01.984 1.29 4.012 4.012 0 01.19 1.042c.153.718.325 1.431.482 2.149.106.488.2.981.318 1.594-.709-.191-1.329-.361-1.952-.522a9.852 9.852 0 00-1.2-.27c-.425-.052-.168-.37-.159-.5m2 9.215a8.39 8.39 0 01-.592-.725c-.258-.4-.479-.82-.715-1.233-.03-.053-.048-.116-.083-.168-.281-.425.079-.38.289-.433 1.14-.284 2.28-.563 3.418-.85.245-.061.483-.147.722-.229a1.56 1.56 0 00.278-.137c-.063-.026-.081-.138-.133-.123-.312.092-.812.293-1.127.375-.692.183-1.387.348-2.083.517-.391.1-.79.17-1.175.288-.3.092-.458.027-.519-.315-.1-.56-.26-1.108-.332-1.671a13.439 13.439 0 01-.068-1.584c-.006-.579.012-1.16.024-1.74 0-.2.02-.4.026-.517.524.106 1.057.206 1.586.319s1.058.219 1.574.38c.1.031.175.3.186.465.041.61.038 1.222.073 1.833a3.727 3.727 0 00.132.922c.129.4.479.245.754.229a4.825 4.825 0 00.5-.1c.376-.058.335.355.514.525a2.172 2.172 0 01.3.489.138.138 0 01.025.086l-.2 1.236a.478.478 0 00.455.612c.255 0 .268.174.286.374a.524.524 0 00.116.3c.2.2.118.369-.029.524-.457.484-.918.966-1.387 1.438-.329.33-.674.642-1.079 1.026-.564-.687-1.149-1.4-1.735-2.118m6.115 4.488a9.618 9.618 0 01-1.627-.643c-.642-.348-1.238-.789-1.854-1.189-.147-.1-.289-.2-.442-.284-.318-.17-.128-.339.006-.479.5-.514 1.009-1.007 1.5-1.525.265-.281.494-.6.746-.891a.144.144 0 01.139-.021 1.029 1.029 0 001.263-.251c.247-.243.438-.431.366-.812h.574c.424.007.595-.278.391-.719a3.837 3.837 0 00-.447-.625l1.479-1.723a.2.2 0 01.04.01c.724.4.185.933.1 1.374-.195.989-.5 1.955-.723 2.937-.238 1.038-.441 2.084-.662 3.125-.111.522-.238 1.038-.337 1.562-.078.419-.365.2-.51.154m2.123.17a7.424 7.424 0 01-1.406-.066 1.479 1.479 0 01.014-.421c.066-.281.178-.55.243-.832.089-.385.16-.775.231-1.165.137-.739.248-1.484.406-2.218.17-.789.376-1.569.579-2.35.164-.628.334-1.256.533-1.874.025-.073.247-.077.41-.122.472 1.389.943 2.759 1.4 4.132.466 1.4.919 2.8 1.377 4.2a11.6 11.6 0 01-3.788.713m4.04-.779c-.291-.74-.583-1.428-.831-2.134-.209-.595-.353-1.213-.548-1.813-.278-.858-.571-1.71-.868-2.561-.2-.584-.432-1.158-.619-1.746-.025-.078.138-.224.2-.319l7.558 5.985-4.89 2.593m7.044-5.436a6.108 6.108 0 01-1.235 2.186 3.3 3.3 0 01-.712.513c-.065.037-.222-.043-.306-.112-.621-.5-1.231-1.026-1.853-1.53-.837-.681-1.674-1.36-2.526-2.021-.739-.571-1.5-1.11-2.246-1.675a8.158 8.158 0 01-.667-.6.255.255 0 01-.041-.169c0-.019.071-.036.079-.041.509.111.985.215 1.461.317.78.168 1.566.3 2.335.508.879.237 1.74.543 2.611.812.527.163 1.026.416 1.54.614.708.273 1.006.466 1.7.79a2.392 2.392 0 01-.137.406m1.009-2.513c-.214.661-.483 1.3-.722 1.938a35.308 35.308 0 00-9.046-2.848l.455-.432-.067-.076c.622-.088 1.245-.181 1.868-.261.26-.034.523-.041.784-.057.666-.042 1.334-.063 2-.128.814-.081 1.623-.2 2.436-.3s1.04-.2 1.848-.3c.308-.037.616-.083.925-.114.027 0 .094.081.087.108-.23.825-.3 1.654-.565 2.468m.6-2.949c0 .087-.325.207-.509.233-.9.124-1.232.219-2.136.327-1.119.134-2.237.289-3.357.4-.653.063-1.314.024-1.966.089s-1.326.21-2 .322l.065-.693a5.324 5.324 0 01.718-.487c.109-.051.287.025.425.075a1.315 1.315 0 001.249-.194c.277-.2.473-.8.119-1.084a4.743 4.743 0 001.14.12c.626-.078.718-.492.368-1.068a2.371 2.371 0 00-1.488-.936c-.1-.035-.2-.084-.3-.127a1.119 1.119 0 01.114-.276c.36-.456.73-.9 1.1-1.353.52-.638 1.045-1.276 1.564-1.915s1.046-1.3 1.575-1.943a4.894 4.894 0 01.361-.356c1.043.594 1.109 1.535 1.524 2.663.283.766.529 1.549.784 2.328a.2.2 0 01-.068.174c-1.042.457-1.5.925-2.557 1.353-.71.288-1.443.514-2.162.776-.066.024-.108.117-.161.178a.572.572 0 00.2.009c.712-.246 1.426-.482 2.13-.753.852-.329 1.12-.686 1.964-1.037.262-.109.512-.247.82-.4.145.615.332 1.231.427 1.861a9.375 9.375 0 01.07 1.712"/></svg>